/* XPM */
static char *gnucash_icon_32x32[] = {
/* columns rows colors chars-per-pixel */
"32 32 140 2 ",
"   c #2E5C02",
".  c #305C04",
"X  c #335C0D",
"o  c #345B10",
"O  c #2F6001",
"+  c #326104",
"@  c #39660C",
"#  c #3A680F",
"$  c #3F5B24",
"%  c #7C6503",
"&  c #7F6906",
"*  c #7E670A",
"=  c #7D6910",
"-  c #716018",
";  c #796A1F",
":  c #4E6735",
">  c #52673E",
",  c #555753",
"<  c #5E5F5C",
"1  c #536541",
"2  c #5E6757",
"3  c #5F6857",
"4  c #727E65",
"5  c #747B6E",
"6  c #787F72",
"7  c #836C05",
"8  c #806808",
"9  c #8E7402",
"0  c #867109",
"q  c #8E760C",
"w  c #907604",
"e  c #937A05",
"r  c #937B0C",
"t  c #987F0A",
"y  c #947C11",
"u  c #468E04",
"i  c #489005",
"p  c #4D9905",
"a  c #52A405",
"s  c #57AE06",
"d  c #5AAF0A",
"f  c #528920",
"g  c #569120",
"h  c #599025",
"j  c #5B8138",
"k  c #629E2B",
"l  c #60843D",
"z  c #6CAA33",
"x  c #7CBD3E",
"c  c #6E9649",
"v  c #709B47",
"b  c #729E48",
"n  c #7DBE40",
"m  c #7B8075",
"M  c #7FC141",
"N  c #998009",
"B  c #978016",
"V  c #9A8112",
"C  c #9D851A",
"Z  c #A58D15",
"A  c #B29B1C",
"S  c #B7A121",
"D  c #BAA421",
"F  c #C5AE28",
"G  c #C7B32F",
"H  c #CDB72E",
"J  c #CFB92F",
"K  c #C8B330",
"L  c #CFBA30",
"P  c #D2BC31",
"I  c #A99847",
"U  c #A7974D",
"Y  c #AE9C4C",
"T  c #AB9B51",
"R  c #B1A159",
"E  c #84897F",
"W  c #D1BF58",
"Q  c #80C243",
"!  c #D5C45E",
"~  c #E7D443",
"^  c #EBD743",
"/  c #ECD944",
"(  c #DCCB66",
")  c #EDDE7C",
"_  c #EEE07E",
"`  c #375B91",
"'  c #395D90",
"]  c #52719D",
"[  c #5776A3",
"{  c #5A79A3",
"}  c #6B85A7",
"|  c #6480A8",
" . c #6F89AE",
".. c #758EAE",
"X. c #7F97B6",
"o. c #888A84",
"O. c #979994",
"+. c #999C96",
"@. c #9FA19D",
"#. c #BCB383",
"$. c #879AB4",
"%. c #899EBA",
"&. c #8CA0BB",
"*. c #95A6BB",
"=. c #97A8BF",
"-. c #A3A7A0",
";. c #AEBCA1",
":. c #B1B2AE",
">. c #A2AFBE",
",. c #B3B4B2",
"<. c #BABFB7",
"1. c #C0B787",
"2. c #C1B888",
"3. c #BFC3BC",
"4. c #FFF293",
"5. c #C0C9B6",
"6. c #9EAEC2",
"7. c #B1BDC7",
"8. c #BDC4C6",
"9. c #BDC5CB",
"0. c #BEC7D2",
"q. c #C1C8CE",
"w. c #CCCFCD",
"e. c #CFD0CD",
"r. c #D3D5CD",
"t. c #D4D9C9",
"y. c #C7CDD1",
"u. c #D5D6D1",
"i. c #D6D8D4",
"p. c #DADCD6",
"a. c #D2D7DA",
"s. c #D7DBDE",
"d. c #DDDEDA",
"f. c #DEE0DB",
"g. c #E1E3DE",
"h. c #E5E6E2",
"j. c #E7E8E5",
"k. c #E9EAE7",
"l. c #EDEDEB",
"z. c None",
/* pixels */
"z.z.z.z.z.z.z.z.z.z.z.z.z.z.z.z.z.z.z.z.z.z.z.z.z.z.z.z.z.z.z.z.",
"z.z.z.z.z.z.z.z.z.z.z.z.z.z.z.z.z.z.z.z.z.z.z.z.z.z.z.z.z.z.z.z.",
"z.z.z.z.z.< , , , , , , , < , , , , , , , , , , , , < z.z.z.z.z.",
"z.z.z.z.< ,.l.l.l.l.l.l.l.l.l.l.l.l.l.l.l.l.l.l.l.l.,.< z.z.z.z.",
"z.z.z.z., l.l.l.l.l.l.l.l.l.l.l.l.l.l.l.l.l.l.l.l.l.l., z.z.z.z.",
"z.z.z.z., l.@.l.l.l.d.l.l.l.d.l.l.l.d.l.l.l.d.l.l.l.l., z.z.z.z.",
"z.z.z.z., l.@.f.d.d.d.d.d.d.d.d.g.d.d.d.d.d.i.u.i.l.l., z.z.z.z.",
"z.z.z.z., l.@.l.k.l.d.k.k.l.d.k.l.k.d.l.k.j.u.j.k.l.l., z.z.z.z.",
"z.z.z.z., l.-.l.j.k.d.k.l.j.d.l.j.l.d.j.j.h.u.h.j.l.l., z.z.z.z.",
"z.z.z.z., l.@.l.k.l.d.k.k.k.d.k.j.j.i.a.h.h.u.h.j.l.l., z.z.z.z.",
"z.z.z.z., l.@.d.d.d.d.d.d.d.d.d.d.d.>.8.u.u.u.u.i.l.l., z.z.z.z.",
"z.z.z.z., l.@.k.k.s.%.s.j.k.d.j.k.9.$.g.h.h.u.h.1.Y y r r z.z.z.",
"z.z.z.z., l.@.j.j.$...[ 6.s.d.h.d.] 8.h.g.g.u.1.C ! _ _ ! V z.z.",
"z.z.z.z., l.@.j.0. .d.s.%.{ 6.g.....u.g.g.g.r.y ( 4.4.4.4.( w z.",
"z.z.z.z., l.-.s.| q.d.d.d.y.} ' ` w.u.u.u.u.u.U B ! _ _ ! V 9 z.",
"z.z.z.z., l.@.6.%.h.d.h.h.f.u.9.7.f.u.d.f.g.r.y D A t t A D w z.",
"z.z.z.z., l.@.[ s.h.i.f.f.f.u.f.f.f.u.f.f.f.u.T t L ^ ^ P N 9 z.",
"z.z.z.z., l.o.*.f.f.u.f.p.f.u.f.d.d.u.d.f.f.r.r D A t N A D 9 z.",
"z.z.z.z., l.o.i.u.u.u.u.u.u.u.u.u.u.u.u.u.u.u.U N P ^ ^ P N 9 z.",
"z.z.z.    .     X , , X         ;.p.u.p.d.p.r.r D A N N A D 9 z.",
"z.z.+ k M M M M v 6 6 v M M M k j p.p.p.p.#.I e w Z F ^ L N 9 z.",
"z.z.+ x d s a i > -.O.: u a d x @ 5.p.p.#.C W ) ) W V e A D w z.",
"z.+ g M z           . , , X         4 o.q ( 4.4.4.4.( e P N 9 z.",
"z.        k Q Q M Q b 5 o.c M M Q k l l.R V ! ) ) W V w A D 9 z.",
"z.  u u + n d s a i : O.-.> i a d n @ t.V D A N t A D e H N 9 z.",
"z.      f M M n M M 3 3.3.2 M M M M h $ ; N P ^ / P N w A D 9 z.",
"z.  p         .     , u.r.,       +     w D A e t A D w H N 7 z.",
"z.      p p p p p p , l.l., p p p p p   = N H ^ / P t 9 A S % z.",
"z.z.z.              , e.e.,             % D A V N A D 7 G 0 z.z.",
"z.z.z.  p p p p p p , :.:., p p p p p   - 0 K ~ ~ G 0 % & z.z.z.",
"z.z.z.              , , , ,             z.z.* % % 8 z.z.z.z.z.z.",
"z.z.z.z.z.z.z.z.z.z.z.z.z.z.z.z.z.z.z.z.z.z.z.z.z.z.z.z.z.z.z.z."
};
