/* XPM */
static char * wxmaxima_32_xpm[] = {
"32 32 488 2",
"  	c None",
". 	c #7D848B",
"+ 	c #A9B2BD",
"@ 	c #C4CEDA",
"# 	c #CDD8E4",
"$ 	c #CFD9E6",
"% 	c #CDD7E3",
"& 	c #C2CCD7",
"* 	c #A4ADB8",
"= 	c #777D84",
"- 	c #9BA4AD",
"; 	c #D2DCE8",
"> 	c #DFE6EE",
", 	c #DFE6ED",
"' 	c #DEE4EC",
") 	c #DDE4EC",
"! 	c #DEE5ED",
"~ 	c #D0DAE5",
"{ 	c #9098A1",
"] 	c #6F7378",
"^ 	c #C6D2E0",
"/ 	c #DAE2EB",
"( 	c #D8E0E9",
"_ 	c #D9E1EA",
": 	c #DAE2EA",
"< 	c #DBE2EB",
"[ 	c #DBE2EC",
"} 	c #DCE2EC",
"| 	c #BFCBD9",
"1 	c #616366",
"2 	c #888F96",
"3 	c #C0CFDE",
"4 	c #D5DDE7",
"5 	c #D3DDE7",
"6 	c #D5DEE8",
"7 	c #D7E0E9",
"8 	c #DBE3EA",
"9 	c #DAE3EA",
"0 	c #DAE1EA",
"a 	c #D8E1E9",
"b 	c #D7DFE9",
"c 	c #D5DEE7",
"d 	c #BCCBDC",
"e 	c #777C82",
"f 	c #80868D",
"g 	c #B9C8DA",
"h 	c #D7DEE8",
"i 	c #DCE3EB",
"j 	c #D2DBE6",
"k 	c #D4DDE7",
"l 	c #CCD8E0",
"m 	c #CCD9E1",
"n 	c #CBD8E0",
"o 	c #C9D6E0",
"p 	c #C8D6DF",
"q 	c #C6D5DE",
"r 	c #C4D3DD",
"s 	c #BECED9",
"t 	c #B8C9D7",
"u 	c #76777A",
"v 	c #626365",
"w 	c #B3C7D5",
"x 	c #7DA5B7",
"y 	c #6A96AA",
"z 	c #7FA0AF",
"A 	c #CAD2D9",
"B 	c #CCD4DC",
"C 	c #CED5DD",
"D 	c #D1D8DE",
"E 	c #D8DEE4",
"F 	c #9BB6C2",
"G 	c #71A4BA",
"H 	c #72A8BD",
"I 	c #6FA2B8",
"J 	c #84ADBE",
"K 	c #7DA7B8",
"L 	c #7AA5B7",
"M 	c #79A4B6",
"N 	c #7CA6B8",
"O 	c #77A5B9",
"P 	c #51859D",
"Q 	c #C7D3E1",
"R 	c #4E4E4E",
"S 	c #BAC6D1",
"T 	c #5B91AA",
"U 	c #6299B2",
"V 	c #DCE6EB",
"W 	c #C3A2A4",
"X 	c #D0B0B3",
"Y 	c #D2B4B7",
"Z 	c #D5B6B8",
"` 	c #D5B5B6",
" .	c #CBA9AC",
"..	c #D6E2E8",
"+.	c #70A6BC",
"@.	c #75AEC5",
"#.	c #D0E2E9",
"$.	c #BB9FA2",
"%.	c #C3A8AC",
"&.	c #C5ACB0",
"*.	c #C4ABAF",
"=.	c #BEA5A9",
"-.	c #CDBFC3",
";.	c #A2BAC7",
">.	c #BECBDA",
",.	c #A6B2BF",
"'.	c #7B8187",
").	c #BCCBD9",
"!.	c #5C93AC",
"~.	c #679CB3",
"{.	c #F2F2F5",
"].	c #CFB6BA",
"^.	c #B8787B",
"/.	c #AB4F52",
"(.	c #A74B50",
"_.	c #9B4349",
":.	c #BDA0A3",
"<.	c #F4F6F8",
"[.	c #9FBCC8",
"}.	c #73A9BF",
"|.	c #C6DBE3",
"1.	c #CEACAE",
"2.	c #B45355",
"3.	c #BC575A",
"4.	c #AF5054",
"5.	c #BF9599",
"6.	c #E0D6DA",
"7.	c #C3CFDB",
"8.	c #B3C3D5",
"9.	c #B5C5D8",
"0.	c #686A6D",
"a.	c #ACB8C7",
"b.	c #B4C4D5",
"c.	c #A9C0CD",
"d.	c #6396AC",
"e.	c #6B98AD",
"f.	c #93ADB9",
"g.	c #D3E1E7",
"h.	c #923C43",
"i.	c #A64C53",
"j.	c #984148",
"k.	c #CBD4D9",
"l.	c #CED2D8",
"m.	c #E7EBF0",
"n.	c #8EB3C2",
"o.	c #72A0B2",
"p.	c #CDC4C8",
"q.	c #B95457",
"r.	c #C25A5D",
"s.	c #B4676B",
"t.	c #E0EAF0",
"u.	c #B6C2CF",
"v.	c #B9C7D7",
"w.	c #B5C4D6",
"x.	c #B2C2D4",
"y.	c #9FAAB6",
"z.	c #504F4E",
"A.	c #B6C7DA",
"B.	c #B7C6D7",
"C.	c #CBD5E1",
"D.	c #A0BFCD",
"E.	c #6697AC",
"F.	c #D1C9CE",
"G.	c #9F6369",
"H.	c #A75B60",
"I.	c #AC4F53",
"J.	c #CBA2A4",
"K.	c #DDE1E6",
"L.	c #E3E8EE",
"M.	c #E5E9EE",
"N.	c #ADC6CF",
"O.	c #A17A80",
"P.	c #AD6A6E",
"Q.	c #BF585B",
"R.	c #B16265",
"S.	c #E0EBF0",
"T.	c #C2CEDC",
"U.	c #BFCCDB",
"V.	c #B8C6D8",
"W.	c #B6C6D8",
"X.	c #797E85",
"Y.	c #B3C4D6",
"Z.	c #B3C4D5",
"`.	c #BBCAD9",
" +	c #CCD6E1",
".+	c #6997AD",
"++	c #ADBFC9",
"@+	c #D5BBBD",
"#+	c #BE8789",
"$+	c #D8B8B9",
"%+	c #BD5A5C",
"&+	c #B25D5E",
"*+	c #F4FAFB",
"=+	c #DEE3E8",
"-+	c #D9DEE3",
";+	c #F4F6F7",
">+	c #7C3439",
",+	c #CCD3D9",
"'+	c #A54649",
")+	c #AD5154",
"!+	c #E9F1F6",
"~+	c #C0CCD8",
"{+	c #C2CFDD",
"]+	c #BAC9D9",
"^+	c #B5C6D8",
"/+	c #66686B",
"(+	c #8D969F",
"_+	c #B2C2D5",
":+	c #B5C5D6",
"<+	c #BDCADA",
"[+	c #97B5C4",
"}+	c #80A8B9",
"|+	c #D7DCE2",
"1+	c #C8A1A3",
"2+	c #C69D9F",
"3+	c #F9FEFF",
"4+	c #B25859",
"5+	c #BC595A",
"6+	c #E0C9CA",
"7+	c #DCE0E3",
"8+	c #E0E3E6",
"9+	c #D2B1B2",
"0+	c #B98688",
"a+	c #DCF2F8",
"b+	c #8F4148",
"c+	c #A8494B",
"d+	c #EAE8EA",
"e+	c #BDC8D4",
"f+	c #C3D0DE",
"g+	c #7D848A",
"h+	c #959FAA",
"i+	c #B5C5D7",
"j+	c #CAD5E0",
"k+	c #6394AB",
"l+	c #B2C6D3",
"m+	c #D5DDE4",
"n+	c #BB8689",
"o+	c #D3B4B5",
"p+	c #DCDFE3",
"q+	c #CEA2A3",
"r+	c #C15E5F",
"s+	c #BF7C7C",
"t+	c #E6EBED",
"u+	c #F3F9FA",
"v+	c #A45859",
"w+	c #EADFE0",
"x+	c #DAE4E8",
"y+	c #9A6066",
"z+	c #953F45",
"A+	c #E0CED0",
"B+	c #BFC9D4",
"C+	c #C4D1DE",
"D+	c #BDCBDB",
"E+	c #878F97",
"F+	c #959FAB",
"G+	c #B4C4D6",
"H+	c #ADC2CF",
"I+	c #6196AC",
"J+	c #CED8E1",
"K+	c #DFE9EE",
"L+	c #AD6A6D",
"M+	c #DDC7C8",
"N+	c #C8CCD2",
"O+	c #F3F1F2",
"P+	c #B35254",
"Q+	c #B55354",
"R+	c #F0EAEB",
"S+	c #DEC8C8",
"T+	c #AF6C6D",
"U+	c #EFF4F6",
"V+	c #9DBAC5",
"W+	c #A67F85",
"X+	c #AC5053",
"Y+	c #D0ADAF",
"Z+	c #C7CFD9",
"`+	c #C4D1DF",
" @	c #BDCADB",
".@	c #B2C3D5",
"+@	c #878F98",
"@@	c #8E96A0",
"#@	c #9CB9C8",
"$@	c #6699AF",
"%@	c #D3DAE2",
"&@	c #E9F2F5",
"*@	c #A04F52",
"=@	c #E5D8DA",
"-@	c #D0D6DC",
";@	c #E6EBEE",
">@	c #C28687",
",@	c #D4A5A7",
"'@	c #B66F70",
")@	c #DFC4C4",
"!@	c #89ABB9",
"~@	c #88B0C0",
"{@	c #BFA4A8",
"]@	c #C08B8E",
"^@	c #D0D8E0",
"/@	c #C3CFDD",
"(@	c #7F858C",
"_@	c #B3C3D6",
":@	c #B1C2D4",
"<@	c #96B5C5",
"[@	c #669AB1",
"}@	c #CDD4DD",
"|@	c #ECEFF2",
"1@	c #9A4144",
"2@	c #EBE5E7",
"3@	c #D1D7DE",
"4@	c #D6DADF",
"5@	c #E4D1D2",
"6@	c #BA5759",
"7@	c #C35E60",
"8@	c #AF5859",
"9@	c #D7E7EB",
"0@	c #6FA3B8",
"a@	c #85A7B6",
"b@	c #E5D1D2",
"c@	c #B55356",
"d@	c #B16669",
"e@	c #DDE7ED",
"f@	c #BFCCDA",
"g@	c #BAC8D9",
"h@	c #686A6E",
"i@	c #525352",
"j@	c #B0C1D3",
"k@	c #98B6C5",
"l@	c #659CB5",
"m@	c #B8C5CF",
"n@	c #E5DDE0",
"o@	c #9E4245",
"p@	c #ECEBEC",
"q@	c #CED6DD",
"r@	c #D7DEE4",
"s@	c #F1F8FA",
"t@	c #B25D5F",
"u@	c #C35E5F",
"v@	c #BA9194",
"w@	c #9CBDCB",
"x@	c #80AABB",
"y@	c #D2D8DE",
"z@	c #EBEAED",
"A@	c #AE4C4F",
"B@	c #AA4C4F",
"C@	c #E7EEF2",
"D@	c #B5C2D1",
"E@	c #B8C7D8",
"F@	c #B7C6D8",
"G@	c #AEBBCA",
"H@	c #A2B9C9",
"I@	c #5F96AE",
"J@	c #8EACB9",
"K@	c #D6BDC0",
"L@	c #AD4D4F",
"M@	c #EDE5E7",
"N@	c #C3C9CF",
"O@	c #E2E5E8",
"P@	c #C99C9D",
"Q@	c #A64A4D",
"R@	c #CED3D8",
"S@	c #6F9CAD",
"T@	c #D7DEE5",
"U@	c #BEC5CE",
"V@	c #EDF1F4",
"W@	c #AE4B4E",
"X@	c #B35154",
"Y@	c #DECFD3",
"Z@	c #ACB8C5",
"`@	c #ADBDCE",
" #	c #A2ADBA",
".#	c #C6D1DC",
"+#	c #CDD5DB",
"@#	c #B8ADB4",
"##	c #90484F",
"$#	c #99454D",
"%#	c #9B6A71",
"&#	c #C4C6CC",
"*#	c #CAD8DF",
"=#	c #759BAB",
"-#	c #E2D8D9",
";#	c #844A50",
">#	c #BAD8E3",
",#	c #C5D4DB",
"'#	c #E6DBDD",
")#	c #C29092",
"!#	c #B75659",
"~#	c #B9575A",
"{#	c #B16A6E",
"]#	c #DBCCCF",
"^#	c #E7EAEE",
"/#	c #B1C1D4",
"(#	c #6D7074",
"_#	c #B1C0D0",
":#	c #C6D2DE",
"<#	c #C5ABAE",
"[#	c #A08288",
"}#	c #A78B91",
"|#	c #AA8D94",
"1#	c #A68990",
"2#	c #9A7A80",
"3#	c #CED0D5",
"4#	c #71A5BA",
"5#	c #B2CED8",
"6#	c #C4B8BE",
"7#	c #94BCCC",
"8#	c #669EB6",
"9#	c #C7DCE5",
"0#	c #98757C",
"a#	c #A3868C",
"b#	c #A88A91",
"c#	c #A78A91",
"d#	c #A4868E",
"e#	c #97777E",
"f#	c #D0CCD0",
"g#	c #A7B2BF",
"h#	c #C0CCD9",
"i#	c #C4CED9",
"j#	c #C4CED7",
"k#	c #C4CFD7",
"l#	c #C8D2D9",
"m#	c #CED7DE",
"n#	c #C2CFD8",
"o#	c #99B9C8",
"p#	c #5E93A7",
"q#	c #BBCED7",
"r#	c #8AAFBF",
"s#	c #8DB2C2",
"t#	c #90B1C0",
"u#	c #AFC6D0",
"v#	c #A8BFCA",
"w#	c #A4BDC7",
"x#	c #A3BBC7",
"y#	c #A4BBC7",
"z#	c #A8C0CB",
"A#	c #B5C7D1",
"B#	c #525253",
"C#	c #8A9199",
"D#	c #B4C5D7",
"E#	c #C9D4E1",
"F#	c #CBD5E2",
"G#	c #C1CEDD",
"H#	c #C5D1DE",
"I#	c #BECFDA",
"J#	c #6B99AC",
"K#	c #CAD5E2",
"L#	c #CAD4E1",
"M#	c #C7D2DF",
"N#	c #C4D0DE",
"O#	c #C1CDDC",
"P#	c #BCCADA",
"Q#	c #B8C6D7",
"R#	c #B6C5D6",
"S#	c #B8C7D9",
"T#	c #797D82",
"U#	c #B3C3D7",
"V#	c #9BB5C4",
"W#	c #5B91A9",
"X#	c #6C9DB2",
"Y#	c #8EB2C2",
"Z#	c #8DAFC0",
"`#	c #5C8DA3",
" $	c #B8C9D5",
".$	c #C0CDDC",
"+$	c #BFCCDC",
"@$	c #81878D",
"#$	c #AEC3D1",
"$$	c #6898AE",
"%$	c #6599AF",
"&$	c #729FB4",
"*$	c #90B0C1",
"=$	c #BDCCD9",
"-$	c #B9C8D8",
";$	c #B9C8D9",
">$	c #B2C3D4",
",$	c #6C7073",
"'$	c #494949",
")$	c #AFB4BD",
"!$	c #C8D3E2",
"~$	c #BECADA",
"{$	c #B6C7D9",
"]$	c #969FAA",
"^$	c #4D4D4C",
"/$	c #A6B2C0",
"($	c #B5C3D4",
"_$	c #B7C7D9",
":$	c #B7C7DA",
"<$	c #B4C2D3",
"[$	c #A3AFBC",
"}$	c #828991",
"                                                                ",
"                                                                ",
"                                                                ",
"                        . + @ # $ % & * =                       ",
"                    - ; > , ' ' ) ' ' , ! ~ {                   ",
"                ] ^ / ( _ : < [ } [ / : _ ( / | 1               ",
"              2 3 4 5 6 7 _ : 8 9 / 0 a b 6 5 c d e             ",
"            f g h i j k b _ 0 8 l m m n o p q r s t u           ",
"          v w x y z A B C D E F G H I J K L M N O P Q R         ",
"          S T U V W X Y Z `  ...+.@.#.$.%.&.*.=.-.;.>.,.        ",
"        '.).!.~.{.].^./.(._.:.<.[.}.|.1.2.3.4.5.6.7.8.9.0.      ",
"        a.b.c.d.e.f.g.h.i.j.k.l.m.n.o.p.q.r.s.t.u.v.w.x.y.      ",
"      z.A.8.B.C.D.E.F.G.H.I.J.K.L.M.N.O.P.Q.R.S.T.U.V.8.W.      ",
"      X.Y.Z.`. +.+++@+#+$+%+&+*+=+-+;+>+,+'+)+!+~+{+]+8.^+/+    ",
"      (+_+:+<+[+}+|+1+2+3+4+5+6+7+8+9+0+a+b+c+d+e+f+`.b.8.g+    ",
"      h+x.i+j+k+l+m+n+o+p+q+r+s+t+u+v+w+x+y+z+A+B+C+D+:+8.E+    ",
"      F+x.G+H+I+J+K+L+M+N+O+P+Q+R+S+T+U+V+W+X+Y+Z+`+ @:+.@+@    ",
"      @@x.8.#@$@%@&@*@=@-@;@>@r+,@'@)@!@~@{@%+]@^@/@`.b.8.(@    ",
"      '._@:@<@[@}@|@1@2@3@4@5@6@7@8@9@0@a@b@c@d@e@f@g@8.9.h@    ",
"      i@A.j@k@l@m@n@o@p@q@r@s@t@u@v@w@x@y@z@A@B@C@D@E@8.F@      ",
"        G@:@H@I@J@K@L@M@N@r@O@P@Q@R@S@T@U@V@W@X@Y@Z@`@x. #      ",
"        (@G+.#+#@###$#%#&#*#=#-#;#>#,#m.'#)#!#~#{#]#^#/#(#      ",
"          _#:#<#[#}#|#1#2#3#4#5#6#7#8#9#0#a#b#c#d#e#f#g#        ",
"          0./#h#i#j#k#l#m#n#o#p#q#r#s#t#u#v#w#x#y#z#A#B#        ",
"            C#D#8.]+E#F#G#H#I#J#h K#L#M#N#O#P#Q#R#S#T#          ",
"              { U#V#W#X#Y#Z#`# $.$G#+$D+]+B.8.x.^+@$            ",
"                X.#$$$%$&$*$=$-$g@;$E@R#Z.>$x.b.,$              ",
"                  '$)$!$~$/#_+8.8.8.>$x.8.{$]$                  ",
"                      ^$+@/$($_$:$_$<$[$}$                      ",
"                                                                ",
"                                                                ",
"                                                                "};
