<?xml version="1.0" encoding="UTF-8" standalone="no"?>
<!-- Created with Inkscape (http://www.inkscape.org/) -->

<svg
   xmlns:dc="http://purl.org/dc/elements/1.1/"
   xmlns:cc="http://creativecommons.org/ns#"
   xmlns:rdf="http://www.w3.org/1999/02/22-rdf-syntax-ns#"
   xmlns:svg="http://www.w3.org/2000/svg"
   xmlns="http://www.w3.org/2000/svg"
   xmlns:sodipodi="http://sodipodi.sourceforge.net/DTD/sodipodi-0.dtd"
   xmlns:inkscape="http://www.inkscape.org/namespaces/inkscape"
   width="48"
   height="48"
   id="svg2"
   version="1.1"
   inkscape:version="0.48+devel r12487"
   sodipodi:docname="audio-volume-high.svg">
  <defs
     id="defs4" />
  <sodipodi:namedview
     id="base"
     pagecolor="#000000"
     bordercolor="#666666"
     borderopacity="1.0"
     inkscape:pageopacity="0"
     inkscape:pageshadow="2"
     inkscape:zoom="5.9440544"
     inkscape:cx="35.096757"
     inkscape:cy="27.944111"
     inkscape:document-units="px"
     inkscape:current-layer="layer1"
     showgrid="false"
     showguides="false"
     inkscape:window-width="1366"
     inkscape:window-height="716"
     inkscape:window-x="0"
     inkscape:window-y="28"
     inkscape:window-maximized="1" />
  <metadata
     id="metadata7">
    <rdf:RDF>
      <cc:Work
         rdf:about="">
        <dc:format>image/svg+xml</dc:format>
        <dc:type
           rdf:resource="http://purl.org/dc/dcmitype/StillImage" />
        <dc:title />
      </cc:Work>
    </rdf:RDF>
  </metadata>
  <g
     inkscape:label="Capa 1"
     inkscape:groupmode="layer"
     id="layer1"
     transform="translate(0,-1004.3622)">
    <path
       inkscape:connector-curvature="0"
       style="fill:#ffffff;fill-opacity:1;stroke:none"
       d="m 8,1022.8622 4,0 0,11 -4,0 z"
       id="rect3249" />
    <path
       style="fill:#ffffff;fill-opacity:1;stroke:none"
       d="m 14,1020.8622 10,-8.5 0,32 -10,-8.5 z"
       id="rect3251"
       inkscape:connector-curvature="0"
       sodipodi:nodetypes="ccccc" />
    <path
       inkscape:connector-curvature="0"
       style="fill:#ffffff;fill-opacity:1;stroke:none"
       d="m 28.4375,1021.7079 -2.220703,3.3281 c 1.074137,0.7172 1.783203,1.9377 1.783203,3.3262 0,1.3885 -0.709066,2.609 -1.783203,3.3262 l 2.220703,3.3281 c 2.147146,-1.4346 3.5625,-3.8782 3.5625,-6.6543 0,-2.7761 -1.415354,-5.2197 -3.5625,-6.6543 z"
       id="path4098" />
    <path
       inkscape:connector-curvature="0"
       style="fill:#ffffff;fill-opacity:1;stroke:none"
       d="m 32.873047,1015.0517 -2.216797,3.3261 c 3.221047,2.1519 5.34375,5.8199 5.34375,9.9844 0,4.1645 -2.122703,7.8325 -5.34375,9.9844 l 2.216797,3.3261 C 37.168209,1038.8037 40,1033.9151 40,1028.3622 c 0,-5.5529 -2.831791,-10.4415 -7.126953,-13.3105 z"
       id="path4089" />
  </g>
</svg>
