<?xml version="1.0" encoding="UTF-8" standalone="no"?>
<!-- Created with Inkscape (http://www.inkscape.org/) -->

<svg
   xmlns:dc="http://purl.org/dc/elements/1.1/"
   xmlns:cc="http://creativecommons.org/ns#"
   xmlns:rdf="http://www.w3.org/1999/02/22-rdf-syntax-ns#"
   xmlns:svg="http://www.w3.org/2000/svg"
   xmlns="http://www.w3.org/2000/svg"
   xmlns:sodipodi="http://sodipodi.sourceforge.net/DTD/sodipodi-0.dtd"
   xmlns:inkscape="http://www.inkscape.org/namespaces/inkscape"
   width="48"
   height="48"
   id="svg2"
   version="1.1"
   inkscape:version="0.48+devel r12493"
   sodipodi:docname="audio-volume-high-panel.svg">
  <defs
     id="defs4" />
  <sodipodi:namedview
     id="base"
     pagecolor="#ffffff"
     bordercolor="#666666"
     borderopacity="1.0"
     inkscape:pageopacity="0.0"
     inkscape:pageshadow="2"
     inkscape:zoom="2.8336844"
     inkscape:cx="1.8004844"
     inkscape:cy="23.58544"
     inkscape:document-units="px"
     inkscape:current-layer="layer1"
     showgrid="false"
     showguides="true"
     inkscape:window-width="1366"
     inkscape:window-height="716"
     inkscape:window-x="0"
     inkscape:window-y="28"
     inkscape:window-maximized="1" />
  <metadata
     id="metadata7">
    <rdf:RDF>
      <cc:Work
         rdf:about="">
        <dc:format>image/svg+xml</dc:format>
        <dc:type
           rdf:resource="http://purl.org/dc/dcmitype/StillImage" />
        <dc:title />
      </cc:Work>
    </rdf:RDF>
  </metadata>
  <g
     inkscape:label="Capa 1"
     inkscape:groupmode="layer"
     id="layer1"
     transform="translate(0,-1004.3622)">
    <path
       style="fill:#1a1a1a;fill-opacity:1;stroke:none"
       d="m 8,1022.8622 4,0 0,11 -4,0 z"
       id="rect3249" />
    <path
       style="fill:#1a1a1a;fill-opacity:1;stroke:none"
       d="m 14,1020.8622 10,-8.5 0,32 -10,-8.5 z"
       id="rect3251"
       inkscape:connector-curvature="0"
       sodipodi:nodetypes="ccccc" />
    <path
       style="fill:#1a1a1a;fill-opacity:1;stroke:none"
       d="M 28.4375 17.345703 L 26.216797 20.673828 C 27.290934 21.391045 28 22.611497 28 24 C 28 25.388503 27.290934 26.608955 26.216797 27.326172 L 28.4375 30.654297 C 30.584646 29.219679 32 26.77614 32 24 C 32 21.22386 30.584646 18.780321 28.4375 17.345703 z "
       transform="translate(0,1004.3622)"
       id="path4098" />
    <path
       style="fill:#1a1a1a;fill-opacity:1;stroke:none"
       d="M 32.873047 10.689453 L 30.65625 14.015625 C 33.877297 16.167498 36 19.835538 36 24 C 36 28.164462 33.877297 31.832502 30.65625 33.984375 L 32.873047 37.310547 C 37.168209 34.441454 40 29.552949 40 24 C 40 18.447051 37.168209 13.558546 32.873047 10.689453 z "
       transform="translate(0,1004.3622)"
       id="path4089" />
  </g>
</svg>
