<?xml version="1.0" encoding="UTF-8" standalone="no"?>
<!-- Created with Inkscape (http://www.inkscape.org/) -->

<svg
   xmlns:dc="http://purl.org/dc/elements/1.1/"
   xmlns:cc="http://creativecommons.org/ns#"
   xmlns:rdf="http://www.w3.org/1999/02/22-rdf-syntax-ns#"
   xmlns:svg="http://www.w3.org/2000/svg"
   xmlns="http://www.w3.org/2000/svg"
   xmlns:sodipodi="http://sodipodi.sourceforge.net/DTD/sodipodi-0.dtd"
   xmlns:inkscape="http://www.inkscape.org/namespaces/inkscape"
   width="48"
   height="48"
   id="svg2"
   version="1.1"
   inkscape:version="0.48+devel r12487"
   sodipodi:docname="audio-volume-blocking-panel.svg">
  <defs
     id="defs4" />
  <sodipodi:namedview
     id="base"
     pagecolor="#ffffff"
     bordercolor="#666666"
     borderopacity="1.0"
     inkscape:pageopacity="0.0"
     inkscape:pageshadow="2"
     inkscape:zoom="5.9330265"
     inkscape:cx="1.5573066"
     inkscape:cy="21.214698"
     inkscape:document-units="px"
     inkscape:current-layer="layer1"
     showgrid="false"
     showguides="false"
     inkscape:window-width="1366"
     inkscape:window-height="716"
     inkscape:window-x="0"
     inkscape:window-y="28"
     inkscape:window-maximized="1" />
  <metadata
     id="metadata7">
    <rdf:RDF>
      <cc:Work
         rdf:about="">
        <dc:format>image/svg+xml</dc:format>
        <dc:type
           rdf:resource="http://purl.org/dc/dcmitype/StillImage" />
        <dc:title />
      </cc:Work>
    </rdf:RDF>
  </metadata>
  <g
     inkscape:label="Capa 1"
     inkscape:groupmode="layer"
     id="layer1"
     transform="translate(0,-1004.3622)">
    <g
       id="g3261"
       transform="translate(0.2195742,0)">
      <path
         id="rect3249"
         d="m 7.7804256,1022.8622 4.0000004,0 0,11 -4.0000004,0 z"
         style="fill:#ff0000;fill-opacity:1;stroke:none"
         inkscape:connector-curvature="0" />
      <path
         sodipodi:nodetypes="ccccc"
         inkscape:connector-curvature="0"
         id="rect3251"
         d="m 13.780426,1020.8622 10,-8.5 0,32 -10,-8.5 z"
         style="fill:#ff0000;fill-opacity:1;stroke:none" />
      <path
         id="path4098"
         d="m 28.217926,1021.7079 -2.220703,3.3281 c 1.074137,0.7172 1.783203,1.9377 1.783203,3.3262 0,1.3885 -0.709066,2.609 -1.783203,3.3262 l 2.220703,3.3281 c 2.147146,-1.4346 3.5625,-3.8782 3.5625,-6.6543 0,-2.7761 -1.415354,-5.2197 -3.5625,-6.6543 z"
         style="fill:#ff0000;fill-opacity:1;stroke:none"
         inkscape:connector-curvature="0" />
      <path
         id="path4089"
         d="m 32.653473,1015.0517 -2.216797,3.3261 c 3.221047,2.1519 5.34375,5.8199 5.34375,9.9844 0,4.1645 -2.122703,7.8325 -5.34375,9.9844 l 2.216797,3.3261 c 4.295162,-2.869 7.126953,-7.7576 7.126953,-13.3105 0,-5.5529 -2.831791,-10.4415 -7.126953,-13.3105 z"
         style="fill:#ff0000;fill-opacity:1;stroke:none"
         inkscape:connector-curvature="0" />
    </g>
  </g>
</svg>
